<svg xmlns="http://www.w3.org/2000/svg" viewBox="0 0 1600 1000" role="img" aria-labelledby="title desc">
  <title id="title">Futuristic city at night</title>
  <desc id="desc">A cinematic blue-black skyline with a glowing moon-like portal and neon streets.</desc>
  <defs>
    <radialGradient id="moon" cx="50%" cy="32%" r="24%">
      <stop offset="0" stop-color="#9deeff" stop-opacity=".72"/>
      <stop offset=".52" stop-color="#2b7892" stop-opacity=".32"/>
      <stop offset="1" stop-color="#0b1326" stop-opacity="0"/>
    </radialGradient>
    <linearGradient id="street" x1="0" x2="1" y1="0" y2="1">
      <stop offset="0" stop-color="#103254"/>
      <stop offset=".5" stop-color="#0b1326"/>
      <stop offset="1" stop-color="#190b38"/>
    </linearGradient>
  </defs>
  <rect width="1600" height="1000" fill="#071022"/>
  <rect width="1600" height="1000" fill="url(#moon)"/>
  <circle cx="800" cy="330" r="210" fill="none" stroke="#78d5ff" stroke-opacity=".28" stroke-width="4"/>
  <circle cx="800" cy="330" r="180" fill="#0b1326" opacity=".42"/>
  <path d="M0 1000 C260 700 420 580 610 570 L990 570 C1180 580 1340 700 1600 1000Z" fill="url(#street)" opacity=".96"/>
  <g fill="#081326" stroke="#114364" stroke-width="3" opacity=".92">
    <path d="M0 1000V160l70 70 28 190 76-120 52 320 72-210 44 590Z"/>
    <path d="M1600 1000V120l-82 170-40 170-68-140-48 320-78-230-56 590Z"/>
    <path d="M210 1000l74-360 68 110 62-230 68 480Z"/>
    <path d="M1390 1000l-74-360-68 110-62-230-68 480Z"/>
  </g>
  <g fill="none" stroke="#00C9A1" stroke-opacity=".3" stroke-width="3">
    <path d="M350 1000C500 760 610 660 740 610"/>
    <path d="M1250 1000C1100 760 990 660 860 610"/>
    <path d="M535 1000C630 770 700 690 770 650"/>
    <path d="M1065 1000C970 770 900 690 830 650"/>
  </g>
  <g fill="#d64cff" opacity=".42">
    <circle cx="230" cy="790" r="5"/>
    <circle cx="278" cy="832" r="3"/>
    <circle cx="1322" cy="820" r="4"/>
    <circle cx="1385" cy="775" r="5"/>
    <circle cx="1200" cy="890" r="3"/>
    <circle cx="410" cy="900" r="3"/>
  </g>
</svg>

